# xmcd
#
# Track frame offsets:
#	150
#	26055
#	70783
#	100705
#	123875
#	143478
#	165650
#	198363
#	225085
#	255760
#	278838
#	303480
#
# Disc length: 4380 seconds
#
# Revision: 1
# Processed by: cddbd v1.5.2PL0 Copyright (c) Steve Scherf et al.
# Submitted via: EZCDAudioConverter 8.0.2.1
#
DISCID=8d111a0c
DTITLE=Duy Khánh - Hòn Vọng Phu
DYEAR=1993
DGENRE=Miscellaneous
TTITLE0=Hòn Vọng Phu 1
TTITLE1=Hòn Vọng Phu 2
TTITLE2=Hòn Vọng Phu 3
TTITLE3=Người về
TTITLE4=Tiếng sông Hương
TTITLE5=Bài hươn ca vô tận
TTITLE6=Về miền Trung
TTITLE7=Nước non ngàn dặm ra đi
TTITLE8=Màu tím hoa sim
TTITLE9=Quê nghèo
TTITLE10=Khối tình Trương Chi
TTITLE11=Lối về đất mẹ
EXTD=
EXTT0=
EXTT1=
EXTT2=
EXTT3=
EXTT4=
EXTT5=
EXTT6=
EXTT7=
EXTT8=
EXTT9=
EXTT10=
EXTT11=
PLAYORDER=
